2.2Hzhigh3min_grf.mot
version=1
nRows=25
nColumns 19
inDegrees=yes
endheader
time	1_ground_force_vx	1_ground_force_vy	1_ground_force_vz	1_ground_force_px	1_ground_force_py	1_ground_force_pz	1_ground_torque_x	1_ground_torque_y	1_ground_torque_z	2_ground_force_vx	2_ground_force_vy	2_ground_force_vz	2_ground_force_px	2_ground_force_py	2_ground_force_pz	2_ground_torque_x	2_ground_torque_y	2_ground_torque_z
            2.502500	           19.080403	         1689.810663	         -160.134729	           -0.191330	            0.006066	           -0.366928	            0.050358	            4.459806	           -0.422633	          -31.592307	         1267.788105	          152.501656	           -0.205083	            0.005797	           -0.712684	           -0.025893	            1.039084	            0.124991
            2.503000	           21.005163	         1695.218354	         -159.978748	           -0.191610	            0.006067	           -0.367096	            0.056677	            4.574095	           -0.431660	          -31.139759	         1272.209417	          152.517226	           -0.205153	            0.005796	           -0.712656	           -0.018955	            0.774418	            0.092840
            2.503500	           23.067192	         1700.806883	         -159.914038	           -0.191872	            0.006067	           -0.367162	            0.065182	            4.806020	           -0.451874	          -31.479529	         1275.521716	          152.857682	           -0.205290	            0.005795	           -0.712486	           -0.021090	            0.854533	            0.102407
            2.504000	           25.220710	         1706.215405	         -159.942065	           -0.192118	            0.006067	           -0.367275	            0.076054	            5.145153	           -0.482311	          -31.640681	         1281.229875	          152.878111	           -0.205324	            0.005795	           -0.712514	           -0.021847	            0.884641	            0.105557
            2.504500	           26.687171	         1710.902068	         -159.788037	           -0.192425	            0.006067	           -0.367266	            0.083564	            5.357231	           -0.500333	          -32.360670	         1286.014783	          152.989365	           -0.205455	            0.005795	           -0.712542	           -0.022768	            0.904811	            0.107640
            2.505000	           27.972064	         1716.306293	         -158.850900	           -0.192648	            0.006067	           -0.367301	            0.089833	            5.511972	           -0.510155	          -32.985565	         1290.431368	          153.240011	           -0.205451	            0.005795	           -0.712446	           -0.020672	            0.808726	            0.096037
            2.505500	           28.430957	         1720.630595	         -158.329098	           -0.192789	            0.006068	           -0.367356	            0.089775	            5.433149	           -0.499948	          -33.139490	         1294.114344	          153.065499	           -0.205575	            0.005794	           -0.712351	           -0.013598	            0.531028	            0.062809
            2.506000	           29.028584	         1724.592365	         -157.350572	           -0.193045	            0.006068	           -0.367443	            0.091342	            5.426620	           -0.495121	          -33.154654	         1298.348881	          153.362196	           -0.205684	            0.005793	           -0.712207	           -0.007410	            0.290193	            0.034278
            2.506500	           29.395694	         1728.196102	         -156.923338	           -0.193192	            0.006069	           -0.367598	            0.093936	            5.522589	           -0.501461	          -33.029450	         1302.585188	          153.236471	           -0.205749	            0.005793	           -0.712266	           -0.001272	            0.050163	            0.005901
            2.507000	           29.899955	         1733.241943	         -156.536100	           -0.193381	            0.006068	           -0.367474	            0.100002	            5.796893	           -0.523541	          -33.232965	         1307.005471	          152.876896	           -0.205909	            0.005792	           -0.712188	           -0.000815	            0.032036	            0.003747
            2.507500	           30.770447	         1736.126362	         -156.525894	           -0.193431	            0.006068	           -0.367521	            0.108254	            6.107906	           -0.550677	          -33.716853	         1311.240157	          152.657559	           -0.205894	            0.005792	           -0.712107	           -0.001029	            0.040028	            0.004660
            2.508000	           31.182568	         1739.911658	         -156.418982	           -0.193608	            0.006068	           -0.367573	            0.112568	            6.280996	           -0.564665	          -35.228616	         1314.732976	          152.811458	           -0.205901	            0.005791	           -0.712018	           -0.003569	            0.133193	            0.015481
            2.508500	           30.862233	         1742.433485	         -155.994649	           -0.193646	            0.006069	           -0.367617	            0.110053	            6.213414	           -0.556268	          -35.994309	         1319.151062	          152.499057	           -0.206032	            0.005791	           -0.712010	            0.000825	           -0.030223	           -0.003494
            2.509000	           30.357971	         1744.235516	         -155.848096	           -0.193686	            0.006069	           -0.367758	            0.105830	            6.080513	           -0.543296	          -36.472736	         1321.911207	          152.602953	           -0.206051	            0.005790	           -0.711890	            0.007770	           -0.281621	           -0.032511
            2.509500	           29.350151	         1747.117409	         -155.328807	           -0.193803	            0.006069	           -0.367756	            0.100894	            6.005901	           -0.533959	          -36.860372	         1325.410262	          152.146330	           -0.206109	            0.005790	           -0.711795	            0.016255	           -0.584479	           -0.067093
            2.510000	           27.976339	         1748.376146	         -154.632155	           -0.193891	            0.006070	           -0.367884	            0.098489	            6.155046	           -0.544373	          -37.063970	         1329.831215	          151.599042	           -0.206143	            0.005789	           -0.711732	            0.019833	           -0.711607	           -0.081122
            2.510500	           27.059396	         1749.457305	         -154.579375	           -0.193777	            0.006070	           -0.367900	            0.098357	            6.359001	           -0.561872	          -37.595514	         1334.250983	          151.051894	           -0.206243	            0.005789	           -0.711685	            0.020658	           -0.733142	           -0.083000
            2.511000	           26.096171	         1751.079812	         -154.661734	           -0.193786	            0.006070	           -0.367862	            0.097098	            6.515408	           -0.575465	          -37.837967	         1336.461667	          150.543677	           -0.206282	            0.005788	           -0.711534	            0.022221	           -0.784852	           -0.088408
            2.511500	           25.087413	         1751.620580	         -154.702779	           -0.193735	            0.006070	           -0.367959	            0.093962	            6.560465	           -0.579419	          -39.490504	         1339.956063	          150.181434	           -0.206318	            0.005788	           -0.711473	            0.024296	           -0.824398	           -0.092398
            2.512000	           23.619393	         1753.604612	         -154.965778	           -0.193722	            0.006070	           -0.367896	            0.087309	            6.482217	           -0.572833	          -40.578040	         1342.714512	          150.144812	           -0.206389	            0.005787	           -0.711399	            0.028914	           -0.956766	           -0.106987
            2.512500	           21.878791	         1753.241324	         -154.412714	           -0.193676	            0.006070	           -0.367953	            0.079904	            6.403031	           -0.563932	          -41.478984	         1345.658888	          149.780278	           -0.206316	            0.005788	           -0.711355	            0.036544	           -1.185557	           -0.131960
            2.513000	           19.451310	         1751.795387	         -153.633336	           -0.193504	            0.006070	           -0.368043	            0.070264	            6.328019	           -0.554970	          -42.330385	         1347.866779	          149.506938	           -0.206346	            0.005787	           -0.711175	            0.042455	           -1.351845	           -0.149948
            2.513500	           17.113907	         1751.072964	         -153.447187	           -0.193371	            0.006071	           -0.368101	            0.062300	            6.374460	           -0.558596	          -42.528103	         1350.631119	          148.719119	           -0.206417	            0.005786	           -0.711020	            0.046503	           -1.476861	           -0.162618
            2.514000	           14.685042	         1750.350374	         -153.169105	           -0.193181	            0.006071	           -0.368060	            0.054654	            6.514386	           -0.570059	          -42.915051	         1353.945927	          148.308745	           -0.206495	            0.005786	           -0.711029	            0.046961	           -1.481592	           -0.162291
            2.514500	           12.668279	         1748.547267	         -153.171829	           -0.193013	            0.006071	           -0.368127	            0.047702	            6.584045	           -0.576759	          -43.627431	         1356.524159	          147.567393	           -0.206527	            0.005786	           -0.711025	            0.049289	           -1.532558	           -0.166717
